solid OpenSCAD_Model
  facet normal -1 0 0
    outer loop
      vertex 0 0 0
      vertex 0 7.8 7.8
      vertex 0 7.8 0
    endloop
  endfacet
  facet normal -1 -0 0
    outer loop
      vertex 0 7.8 7.8
      vertex 0 0 0
      vertex 0 0 7.8
    endloop
  endfacet
  facet normal 0 0 1
    outer loop
      vertex 2.2 7.8 7.8
      vertex 1.8 6 7.8
      vertex 4 6 7.8
    endloop
  endfacet
  facet normal -0 0 1
    outer loop
      vertex 0 7.8 7.8
      vertex 1.8 6 7.8
      vertex 2.2 7.8 7.8
    endloop
  endfacet
  facet normal 0 0 1
    outer loop
      vertex 0 0 7.8
      vertex 1.8 6 7.8
      vertex 0 7.8 7.8
    endloop
  endfacet
  facet normal 0 0 1
    outer loop
      vertex 1.8 6 7.8
      vertex 0 0 7.8
      vertex 1.8 0 7.8
    endloop
  endfacet
  facet normal 0 1 -0
    outer loop
      vertex 2.2 7.8 0
      vertex 0 7.8 7.8
      vertex 2.2 7.8 7.8
    endloop
  endfacet
  facet normal 0 1 0
    outer loop
      vertex 0 7.8 7.8
      vertex 2.2 7.8 0
      vertex 0 7.8 0
    endloop
  endfacet
  facet normal 0 0 -1
    outer loop
      vertex 1.8 0 0
      vertex 0 0 0
      vertex 1.8 6 0
    endloop
  endfacet
  facet normal 0 0 -1
    outer loop
      vertex 1.8 6 0
      vertex 2.2 7.8 0
      vertex 4 6 0
    endloop
  endfacet
  facet normal 0 0 -1
    outer loop
      vertex 0 7.8 0
      vertex 1.8 6 0
      vertex 0 0 0
    endloop
  endfacet
  facet normal 0 0 -1
    outer loop
      vertex 1.8 6 0
      vertex 0 7.8 0
      vertex 2.2 7.8 0
    endloop
  endfacet
  facet normal 0 -1 0
    outer loop
      vertex 1.8 6 0
      vertex 4 6 7.8
      vertex 1.8 6 7.8
    endloop
  endfacet
  facet normal 0 -1 -0
    outer loop
      vertex 4 6 7.8
      vertex 1.8 6 0
      vertex 4 6 0
    endloop
  endfacet
  facet normal 0.707107 0.707107 -0
    outer loop
      vertex 4 6 0
      vertex 2.2 7.8 7.8
      vertex 4 6 7.8
    endloop
  endfacet
  facet normal 0.707107 0.707107 0
    outer loop
      vertex 2.2 7.8 7.8
      vertex 4 6 0
      vertex 2.2 7.8 0
    endloop
  endfacet
  facet normal 1 -0 0
    outer loop
      vertex 1.8 0 7.8
      vertex 1.8 6 0
      vertex 1.8 6 7.8
    endloop
  endfacet
  facet normal 1 0 0
    outer loop
      vertex 1.8 6 0
      vertex 1.8 0 7.8
      vertex 1.8 0 0
    endloop
  endfacet
  facet normal 0 -1 0
    outer loop
      vertex 0 0 0
      vertex 1.8 0 7.8
      vertex 0 0 7.8
    endloop
  endfacet
  facet normal 0 -1 -0
    outer loop
      vertex 1.8 0 7.8
      vertex 0 0 0
      vertex 1.8 0 0
    endloop
  endfacet
endsolid OpenSCAD_Model
