<?xml version="1.0" encoding="UTF-8" standalone="no"?>
<svg
   xmlns:dc="http://purl.org/dc/elements/1.1/"
   xmlns:cc="http://creativecommons.org/ns#"
   xmlns:rdf="http://www.w3.org/1999/02/22-rdf-syntax-ns#"
   xmlns:svg="http://www.w3.org/2000/svg"
   xmlns="http://www.w3.org/2000/svg"
   xmlns:sodipodi="http://sodipodi.sourceforge.net/DTD/sodipodi-0.dtd"
   xmlns:inkscape="http://www.inkscape.org/namespaces/inkscape"
   width="148.51952"
   height="353.22455"
   version="1.1"
   id="svg31"
   sodipodi:docname="Hollow-Egg-Carrier.svg"
   inkscape:version="0.92.1 r">
  <sodipodi:namedview
     pagecolor="#ffffff"
     bordercolor="#666666"
     borderopacity="1"
     objecttolerance="10"
     gridtolerance="10"
     guidetolerance="10"
     inkscape:pageopacity="0"
     inkscape:pageshadow="2"
     inkscape:window-width="1916"
     inkscape:window-height="1150"
     id="namedview33"
     showgrid="false"
     inkscape:zoom="2.7093247"
     inkscape:cx="-1.0357575"
     inkscape:cy="160.37207"
     inkscape:window-x="1920"
     inkscape:window-y="23"
     inkscape:window-maximized="1"
     inkscape:current-layer="layer1"
     fit-margin-top="20"
     fit-margin-left="20"
     fit-margin-right="20"
     fit-margin-bottom="20" />
  <metadata
     id="metadata35">
    <rdf:RDF>
      <cc:Work
         rdf:about="">
        <dc:format>image/svg+xml</dc:format>
        <dc:type
           rdf:resource="http://purl.org/dc/dcmitype/StillImage" />
        <dc:title />
      </cc:Work>
    </rdf:RDF>
  </metadata>
  <desc
     id="desc2">/home/ardavis/Documents/rockets2015/Hollow-Egg-Carrier-Snap-Blank/Hollow-Egg-Carrier.DXF - scale = 1.000000, origin = (0.000000, 0.000000), method = manual</desc>
  <defs
     id="defs17">
    <marker
       style="overflow:visible"
       refY="0"
       refX="0"
       orient="auto"
       id="DistanceX">
      <path
         inkscape:connector-curvature="0"
         id="path4"
         style="stroke:#000000;stroke-width:0.5"
         d="M 3,-3 -3,3 M 0,-5 V 5" />
    </marker>
    <pattern
       y="0"
       x="0"
       width="8"
       patternUnits="userSpaceOnUse"
       id="Hatch"
       height="8">
      <path
         id="path7"
         stroke-width="0.25"
         stroke="#000000"
         linecap="square"
         d="M8 4 l-4,4" />
      <path
         id="path9"
         stroke-width="0.25"
         stroke="#000000"
         linecap="square"
         d="M6 2 l-4,4" />
      <path
         id="path11"
         stroke-width="0.25"
         stroke="#000000"
         linecap="square"
         d="M4 0 l-4,4" />
    </pattern>
    <symbol
       id="*Model_Space" />
    <symbol
       id="*Paper_Space" />
    <symbol
       id="*Paper_Space0" />
  </defs>
  <g
     sodipodi:insensitive="true"
     style="display:none"
     transform="translate(16.338557,-788.79699)"
     id="g29"
     inkscape:label="Import"
     inkscape:groupmode="layer">
    <path
       inkscape:connector-curvature="0"
       id="path25"
       d="m 4.1618882,1121.4676 27.5735198,-2.8303 23.52557,-10.0725 19.45995,-15.9307 15.37667,-20.405 15.370222,-35.9694 6.21122,-38.51112 -1.85088,-38.733 -8.31957,-37.64408 -13.680222,-35.45832 -20.33394,-33.19368 -18.06998,-20.39702 -21.32798,-15.7266 -23.9345798,-7.12827 z"
       style="fill:none;stroke:#ff8080;stroke-linecap:round" />
    <path
       inkscape:connector-curvature="0"
       id="path27"
       d="m 4.3616182,1116.7474 26.1785398,-2.6808 22.2442,-9.525 18.50604,-15.1558 14.75771,-19.5902 14.871642,-34.8179 6.04062,-37.46182 -1.81059,-37.8476 -8.165602,-36.93672 -13.40542,-34.75419 -19.85072,-32.40578 -17.46784,-19.73911 -20.20081,-14.96871 -21.8974998,-6.66213 z"
       style="fill:none;stroke:#ff8080;stroke-linecap:round" />
  </g>
  <g
     style="display:inline"
     inkscape:label="Spline"
     id="layer1"
     inkscape:groupmode="layer">
    <path
       sodipodi:nodetypes="aaaaaaaaaaaaccaaaaaaaaaaaacca"
       inkscape:connector-curvature="0"
       id="path4550"
       d="m 28.14322,349.89212 c 8.25795,-2.13864 16.232198,-5.64822 23.52557,-10.0725 7.167383,-4.34785 13.652648,-9.885 19.45995,-15.9307 5.899892,-6.14209 11.109415,-13.03448 15.376665,-20.405 6.53292,-11.28386 11.74354,-23.44535 15.370235,-35.9694 3.61677,-12.4898 5.48241,-25.52863 6.21122,-38.51112 0.72448,-12.90541 -0.14157,-25.92079 -1.85088,-38.733 -1.69941,-12.73796 -4.60961,-25.34043 -8.319575,-37.64408 C 94.259055,140.49713 89.848095,128.52581 84.236175,117.168 78.488272,105.53498 71.623058,94.402858 63.90224,83.974318 58.49741,76.673992 52.536379,69.706062 45.83226,63.577298 39.31285,57.617392 32.40969,51.791215 24.50428,47.850698 17.054028,44.137059 5.4747776,40.796747 0.56969958,40.722428 v 4.73403 c 4.67505702,0.07083 15.43555242,3.868618 22.39141242,7.568488 7.680259,4.085183 14.373908,9.910214 20.74823,15.829937 6.416196,5.95861 12.307737,12.550982 17.432806,19.65072 7.464143,10.340047 13.663103,21.606257 19.170177,33.108527 5.21423,10.89063 9.55287,22.23513 13.03871,33.79553 3.53598,11.72667 6.309714,23.73816 7.929425,35.87878 1.62916,12.21139 2.45459,24.61642 1.76409,36.91664 -0.69464,12.37367 -2.56744,24.77406 -5.919955,36.70516 -3.44184,12.24901 -8.11402,24.29392 -14.43925,35.33366 -4.056454,7.07993 -9.241568,13.53642 -14.865787,19.44812 -5.773079,6.06818 -12.060504,11.81967 -19.178008,16.23468 -6.854379,4.25179 -14.398049,7.60012 -22.212145,9.60016 -8.40754,2.15194 -14.71978,2.46271 -25.92273442,2.42281 l 0.06303,4.77275 C 12.323859,352.76422 19.198839,352.20853 28.14322,349.89212 Z"
       style="fill:none;fill-rule:evenodd;stroke:#000000;stroke-width:1px;stroke-linecap:butt;stroke-linejoin:miter;stroke-opacity:1" />
  </g>
  <g
     inkscape:label="Linear"
     id="layer2"
     inkscape:groupmode="layer"
     style="display:none">
    <path
       style="display:inline;fill:none;fill-rule:evenodd;stroke:#000000;stroke-width:1px;stroke-linecap:butt;stroke-linejoin:miter;stroke-opacity:1"
       d="m 28.14322,349.89212 6.134063,-1.8539 5.990439,-2.32524 5.809581,-2.75378 5.591487,-3.13958 5.247705,-3.47324 4.9923,-3.85542 4.737286,-4.17375 4.482659,-4.42829 4.291539,-4.743 4.009034,-4.99884 3.702914,-5.22917 3.373178,-5.43399 4.647671,-8.6194 4.127281,-8.90023 3.582364,-9.13276 1.579169,-4.63849 1.43375,-4.67852 1.2754,-4.70823 1.11844,-4.7526 1.79475,-9.60997 1.25327,-9.70235 0.76936,-9.73797 0.25681,-9.69478 -0.26958,-9.70667 -0.72591,-9.68919 -1.1122,-9.64236 -1.49516,-9.52551 -1.91067,-9.4594 -2.28765,-9.37796 -2.626095,-9.28121 -2.891304,-9.06017 -3.215847,-8.95826 -3.582329,-8.81362 -3.99075,-8.62627 -4.516334,-8.62768 -4.91079,-8.42084 L 69.528339,91.924478 63.90224,83.974318 59.74141,78.569316 55.354483,73.336472 50.72394,68.323296 45.83226,63.577298 40.861085,59.159817 35.68802,54.956727 30.25508,51.132273 27.423036,49.41336 24.50428,47.850698 21.537989,46.481233 18.311203,45.180665 11.58255,42.921818 5.3311159,41.345343 2.7008557,40.897741 0.56969958,40.722428 v 4.73403 l 2.01908472,0.193792 2.4736953,0.498371 5.8476254,1.731191 6.275275,2.411636 5.775732,2.733498 2.835153,1.610286 2.750478,1.754117 5.27821,3.862613 5.033347,4.206589 4.851042,4.396332 4.709996,4.585813 4.49058,4.811624 4.248493,5.025586 3.983737,5.227697 5.369843,7.917908 4.949146,8.200519 4.582196,8.41844 4.268992,8.57166 3.746855,8.24935 3.420646,8.39725 3.096573,8.52283 2.774636,8.6261 2.502942,8.84597 2.180371,8.93819 1.821071,9.0158 1.425041,9.07882 1.06004,9.19019 0.69188,9.23482 0.25694,9.25148 -0.24477,9.24015 -0.7466,9.27751 -1.21667,9.24103 -1.715034,9.15805 -2.241651,9.02857 -2.818674,9.13597 -3.31968,8.98434 -1.860101,4.41183 -2.000215,4.34576 -2.14528,4.2703 -2.2953,4.18546 -3.24319,5.19428 -3.601792,4.96787 -3.895747,4.74882 -4.125058,4.53715 -4.431182,4.47582 -4.653663,4.26146 -4.905741,3.95149 -5.187422,3.54591 -5.263482,3.01249 -5.482697,2.632 -5.662644,2.20979 -5.803322,1.74588 -6.021943,1.29202 -5.891144,0.74132 -6.4152841,0.33036 -7.59436332,0.0591 0.06303,4.77275 8.00934442,-0.0989 6.831082,-0.43197 6.304248,-0.87413 6.428845,-1.42535 v 0"
       id="path4506"
       inkscape:connector-curvature="0"
       sodipodi:nodetypes="aaaaaaaaaaaaccaaaaaaaaaaaacca" />
  </g>
</svg>
